<svg width="24" height="23" viewBox="0 0 24 23" fill="none" xmlns="http://www.w3.org/2000/svg">
<path d="M0.75 11.0308H3.81925V22.0962H0.75V11.0308Z" stroke="#FA2230" stroke-width="1.5"/>
<path d="M16.5647 1.91537L17.1347 2.5818L17.7047 1.91537C18.3097 1.20798 19.2577 0.75 20.2189 0.75C21.918 0.75 23.2386 2.07057 23.2386 3.76963C23.2386 4.77294 22.5774 5.98985 21.3174 7.45065C20.1993 8.74687 18.7218 10.1124 17.1356 11.5523C15.5487 10.1072 14.0706 8.73895 12.952 7.44208C11.6912 5.98036 11.0308 4.76665 11.0308 3.76963C11.0308 2.07057 12.3514 0.75 14.0505 0.75C15.0117 0.75 15.9597 1.20798 16.5647 1.91537Z" stroke="#FA2230" stroke-width="1.5"/>
<path d="M13.4605 17.8427L13.5805 17.8846H13.7078H21.704C22.3811 17.8846 22.9556 18.3225 23.1652 18.931L14.8174 22.0576L7.60388 20.0171V11.0308H8.96882L17.1286 14.0766C17.3749 14.1751 17.527 14.4064 17.527 14.6444C17.527 14.9727 17.2574 15.2423 16.9291 15.2423H13.8457L11.9641 14.526L11.2446 14.2522L10.9896 14.9785L10.6127 16.0523L10.3638 16.7611L11.073 17.0088L13.4605 17.8427Z" stroke="#FA2230" stroke-width="1.5"/>
</svg>
