<svg width="381" height="382" viewBox="0 0 381 382" fill="none" xmlns="http://www.w3.org/2000/svg">
<rect x="27" y="170" width="14" height="15" fill="white"/>
<rect x="342" y="185" width="14" height="15" fill="white"/>
<path d="M189.052 348.809H189.393L189.733 348.793C290.827 344.198 334.048 272.833 344.483 223.754C347.928 207.556 334.849 194.621 320.429 194.621H290.398L287.907 175.113H365.885C367.967 244.38 341.653 291.778 306.755 322.121C270.541 353.607 224.497 367.203 189.484 366.677C106.597 363.161 59.1647 317.285 36.1683 274.832H57.0533C95.8715 335.111 154.901 348.809 189.052 348.809ZM189.052 33.3445H188.937L188.822 33.3462C97.4803 34.7472 52.2577 102.034 39.2269 144.135C34.0039 161.009 47.6942 175.113 62.6212 175.113H119.851L110.885 194.621H15.002C14.7305 129.792 41.7055 85.6724 76.3611 57.2826C112.508 27.6709 157.298 14.9999 189.052 15C260.98 15.0001 310.142 56.1621 335.992 93.4975H313.667C290.096 62.397 260.192 47.3349 235.766 40.1001C223.342 36.42 212.252 34.7343 203.954 33.9659C199.797 33.5809 196.322 33.4245 193.713 33.3656C192.407 33.336 191.324 33.3311 190.494 33.3336C190.08 33.3348 189.734 33.3379 189.471 33.3405L189.155 33.3437C189.068 33.3445 189.045 33.3445 189.052 33.3445Z" stroke="white" stroke-width="30"/>
<path d="M105.354 188.97C105.354 188.97 105.337 277.389 105.337 304.314C128.863 322.333 154.511 328.358 154.511 328.358V295.712V246.554V188.97C157.275 155.613 181.18 147.888 195.576 147.888C222.262 147.888 235.27 172.818 235.27 188.97V246.554V295.712V325.756C235.27 325.756 266.504 315.31 284.427 298.189C284.411 260.886 284.427 188.97 284.427 188.97C280.895 118.744 228.231 97.1651 195.576 98.0281C129.916 99.7634 103.582 155.612 105.354 188.97Z" fill="url(#paint0_radial_47_7)"/>
<path d="M235.27 246.554H154.511V295.712H235.27V246.554Z" fill="url(#paint1_radial_47_7)"/>
<defs>
<radialGradient id="paint0_radial_47_7" cx="0" cy="0" r="1" gradientUnits="userSpaceOnUse" gradientTransform="translate(217 189) rotate(125.193) scale(280.22 220.017)">
<stop stop-color="#FA2230"/>
<stop offset="1" stop-color="#700000"/>
</radialGradient>
<radialGradient id="paint1_radial_47_7" cx="0" cy="0" r="1" gradientUnits="userSpaceOnUse" gradientTransform="translate(217 189) rotate(125.193) scale(280.22 220.017)">
<stop stop-color="#FA2230"/>
<stop offset="1" stop-color="#700000"/>
</radialGradient>
</defs>
</svg>
