<?xml version="1.0" standalone="no"?>
<!DOCTYPE svg PUBLIC "-//W3C//DTD SVG 20010904//EN"
 "http://www.w3.org/TR/2001/REC-SVG-20010904/DTD/svg10.dtd">
<svg version="1.0" xmlns="http://www.w3.org/2000/svg"
 width="816.000000pt" height="816.000000pt" viewBox="0 0 816.000000 816.000000"
 preserveAspectRatio="xMidYMid meet">
<metadata>
Created by potrace 1.14, written by Peter Selinger 2001-2017
</metadata>
<g transform="translate(0.000000,816.000000) scale(0.100000,-0.100000)"
fill="#000000" stroke="none">
<path d="M3839 8155 c-3 -2 -42 -7 -89 -10 -46 -4 -87 -8 -90 -10 -3 -1 -34
-6 -70 -10 -36 -4 -74 -9 -85 -12 -11 -2 -31 -6 -45 -8 -23 -3 -44 -7 -108
-19 -13 -3 -31 -7 -40 -10 -9 -3 -28 -7 -42 -10 -14 -2 -45 -9 -70 -16 -25 -7
-52 -13 -60 -15 -30 -6 -106 -27 -150 -42 -25 -8 -52 -16 -60 -18 -37 -8 -206
-69 -217 -78 -7 -5 -13 -7 -13 -4 0 7 -230 -88 -330 -137 -41 -20 -80 -36 -87
-36 -6 0 -13 -3 -15 -7 -1 -5 -34 -24 -73 -43 -38 -19 -71 -38 -73 -42 -2 -5
-8 -8 -13 -8 -5 0 -62 -31 -126 -70 -64 -38 -120 -70 -124 -70 -4 0 -9 -3 -11
-7 -1 -5 -30 -26 -63 -48 -33 -22 -61 -43 -63 -47 -2 -5 -10 -8 -17 -8 -7 0
-15 -3 -17 -7 -1 -5 -38 -34 -81 -66 -44 -33 -87 -66 -96 -75 -10 -10 -37 -32
-62 -51 -92 -72 -339 -314 -435 -426 -32 -38 -61 -72 -64 -75 -16 -15 -144
-186 -191 -255 -29 -44 -57 -81 -61 -83 -5 -2 -8 -7 -8 -12 0 -5 -23 -46 -52
-92 -88 -141 -218 -406 -274 -558 -13 -36 -28 -74 -33 -85 -17 -38 -68 -194
-87 -267 -1 -5 -2 -9 -4 -10 -1 -2 -3 -10 -5 -18 -1 -8 -11 -44 -20 -80 -9
-36 -19 -76 -22 -90 -8 -41 -11 -55 -13 -55 -1 0 -3 -9 -5 -20 -10 -62 -15
-85 -25 -131 -6 -28 -10 -55 -9 -60 1 -5 0 -12 -1 -16 -5 -14 -6 -23 -14 -83
-5 -33 -10 -71 -12 -85 -2 -14 -6 -54 -10 -90 -3 -36 -8 -87 -11 -115 -11
-118 -12 -577 -1 -603 19 -45 60 -82 103 -93 28 -8 339 -11 1030 -11 974 0
992 0 1030 20 l40 20 0 -1024 c0 -563 -1 -1024 -3 -1024 -5 0 -88 64 -145 112
-86 72 -278 268 -352 358 -38 47 -72 87 -75 90 -12 11 -112 152 -178 251 -54
82 -80 110 -109 124 -35 17 -73 19 -448 20 -226 0 -426 -3 -445 -8 -70 -17
-123 -91 -114 -161 4 -34 134 -306 146 -306 4 0 8 -9 8 -19 0 -11 3 -21 8 -23
4 -1 16 -19 26 -38 11 -19 46 -78 79 -130 33 -52 64 -104 71 -115 6 -11 13
-22 16 -25 3 -3 33 -43 67 -90 34 -47 71 -95 82 -107 12 -12 21 -25 21 -27 0
-7 37 -52 133 -161 91 -103 259 -270 362 -360 135 -117 127 -111 290 -231 85
-62 237 -159 355 -227 97 -54 371 -189 392 -191 3 -1 10 -4 14 -8 4 -5 16 -8
26 -8 10 0 18 -5 18 -11 0 -6 7 -9 15 -5 8 3 15 2 15 -3 0 -4 6 -8 13 -9 6 0
60 -19 118 -41 59 -22 118 -42 132 -45 14 -2 34 -9 45 -15 10 -5 30 -12 43
-15 13 -3 58 -14 99 -26 70 -19 180 -46 225 -54 11 -2 45 -9 75 -15 30 -6 69
-13 85 -16 17 -2 41 -7 55 -10 14 -3 43 -7 65 -10 22 -3 49 -7 61 -9 12 -2 57
-8 100 -12 43 -3 93 -8 109 -10 109 -12 210 -17 345 -15 153 1 198 3 315 16
33 4 76 8 95 10 19 2 35 4 35 5 0 3 22 6 85 14 49 6 158 28 259 52 36 9 72 17
80 19 92 18 483 147 506 167 5 4 15 8 23 8 7 0 38 11 68 25 30 14 57 25 59 25
12 0 304 146 381 190 48 27 89 50 91 50 2 0 16 9 31 19 15 10 83 56 152 101
102 68 267 187 290 210 3 3 32 27 65 55 176 146 505 482 505 516 0 5 4 9 8 9
5 0 21 18 38 40 16 23 41 55 56 73 15 18 28 35 28 39 0 4 6 13 13 20 11 12
118 170 144 213 7 11 30 50 52 87 23 36 41 71 41 77 0 6 5 11 10 11 6 0 10 9
10 19 0 11 3 21 8 23 4 2 31 53 61 113 29 61 59 122 67 137 8 14 14 33 14 42
0 9 4 16 9 16 5 0 13 15 16 32 4 18 11 38 14 43 11 15 107 280 115 320 2 6 9
30 16 55 7 25 14 50 16 55 1 6 10 39 19 75 9 36 18 72 20 80 2 8 8 33 13 55
12 42 20 83 27 125 5 37 15 92 20 120 10 54 17 97 21 130 2 19 6 58 9 85 24
202 30 323 30 595 -1 387 -2 394 -72 447 l-36 28 -996 2 c-548 1 -1001 2
-1007 2 -6 1 -21 29 -33 64 -173 489 -477 838 -918 1052 -62 30 -115 55 -117
55 -3 0 -17 5 -33 12 -15 6 -30 12 -33 13 -3 1 -36 11 -75 23 -129 39 -249 64
-385 78 -48 4 -255 4 -310 -1 -93 -9 -155 -16 -170 -20 -8 -2 -31 -6 -50 -9
-61 -10 -83 -15 -190 -45 -208 -58 -398 -150 -580 -279 -106 -75 -291 -253
-365 -352 -27 -36 -55 -71 -62 -78 -7 -7 -13 -17 -13 -22 0 -5 -6 -15 -13 -22
-22 -22 -156 -262 -162 -288 -1 -3 -8 -21 -17 -40 -8 -19 -28 -72 -44 -116
l-28 -82 -35 27 -34 26 -486 2 c-267 1 -501 5 -519 9 -41 8 -98 64 -105 102
-7 38 1 90 23 147 6 17 13 37 15 45 4 21 44 127 65 175 10 22 18 42 18 45 -1
3 10 25 23 50 13 25 23 47 24 50 1 15 149 277 200 355 65 99 192 271 240 324
114 130 185 202 297 303 115 106 316 258 339 258 5 0 9 4 9 9 0 5 14 14 30 21
17 7 30 16 30 21 0 5 6 9 14 9 8 0 21 6 28 13 7 6 36 24 63 39 28 14 75 39
105 55 30 16 96 46 145 67 50 21 99 41 110 46 31 14 106 40 150 52 22 6 42 14
45 17 3 3 10 7 15 8 6 1 46 10 90 22 170 43 305 68 470 87 198 22 567 22 685
-1 13 -3 42 -7 65 -10 22 -3 67 -11 100 -16 33 -6 69 -12 80 -14 11 -1 27 -5
35 -8 8 -3 29 -8 45 -11 17 -3 45 -9 63 -15 18 -5 33 -10 35 -10 1 1 14 -2 28
-6 14 -3 32 -8 40 -9 8 -2 21 -6 29 -9 8 -3 69 -24 135 -46 67 -22 134 -47
150 -55 17 -9 34 -16 39 -16 11 0 298 -140 306 -149 3 -3 15 -12 28 -18 54
-31 70 -41 146 -93 193 -130 350 -265 496 -426 92 -102 104 -116 174 -207 37
-48 82 -95 99 -105 29 -15 77 -17 494 -18 452 -1 463 0 500 20 61 35 92 107
71 169 -18 51 -172 294 -258 406 -231 301 -413 497 -669 717 -19 16 -39 34
-45 39 -6 6 -34 28 -61 50 -28 21 -52 42 -55 45 -3 3 -18 14 -33 23 -16 10
-36 24 -45 32 -46 38 -113 85 -120 85 -4 0 -23 14 -42 30 -19 16 -38 30 -42
30 -4 0 -27 14 -51 30 -25 17 -49 30 -55 30 -6 0 -12 4 -14 8 -17 41 -686 352
-757 352 -11 0 -22 4 -25 9 -3 5 -27 14 -53 21 -27 7 -52 14 -58 16 -20 6
-130 36 -145 40 -8 2 -42 10 -76 18 -34 8 -72 17 -85 20 -13 3 -49 10 -79 16
-30 6 -73 13 -95 16 -22 3 -51 7 -63 10 -13 3 -40 7 -60 9 -75 9 -128 16 -172
20 -58 6 -576 15 -581 10z m476 -3109 c160 -27 317 -107 430 -221 56 -55 115
-130 115 -144 0 -6 3 -11 8 -11 15 0 128 -247 117 -258 -2 -2 1 -14 6 -25 6
-11 13 -31 16 -46 9 -39 19 -1312 11 -1317 -3 -2 -4 -12 -1 -22 4 -18 -28 -18
-839 -17 -464 1 -845 3 -848 3 -3 1 -5 287 -5 635 1 642 2 657 40 802 23 87
92 245 107 245 4 0 8 5 8 11 0 33 129 167 220 229 60 41 157 89 194 96 11 2
32 8 46 14 70 28 274 42 375 26z m2631 -1312 c66 -49 85 -113 59 -200 -7 -24
-13 -47 -13 -49 0 -22 -16 -94 -24 -109 -6 -10 -11 -28 -13 -40 -3 -30 -86
-269 -96 -280 -5 -6 -9 -16 -9 -23 0 -7 -13 -41 -30 -75 -16 -34 -30 -66 -30
-71 0 -6 -7 -18 -16 -28 -8 -9 -17 -23 -18 -31 -2 -13 -21 -52 -59 -117 -11
-20 -31 -56 -45 -81 -13 -25 -31 -52 -38 -61 -8 -8 -14 -21 -14 -27 0 -7 -4
-12 -10 -12 -5 0 -10 -6 -10 -13 0 -7 -9 -23 -20 -35 -11 -12 -20 -24 -20 -28
0 -8 -62 -88 -72 -92 -5 -2 -8 -8 -8 -14 0 -10 -63 -90 -148 -187 -46 -52
-246 -251 -253 -251 -3 0 -6 416 -6 924 l0 924 433 -2 c420 -1 433 -2 460 -22z
m-1925 -1972 c0 -193 0 -209 -2 -252 0 -14 0 -30 1 -35 2 -6 2 -42 1 -82 l-1
-72 -69 -22 c-39 -11 -78 -22 -88 -24 -10 -2 -19 -4 -20 -5 -4 -3 -11 -5 -58
-15 -56 -13 -55 -12 -57 -15 -2 -1 -12 -3 -23 -5 -11 -2 -31 -6 -45 -9 -52
-12 -121 -24 -173 -31 -15 -2 -63 -9 -106 -15 -43 -6 -104 -13 -137 -16 -82
-9 -386 -9 -459 0 -89 10 -138 17 -155 21 -8 2 -35 6 -60 9 -25 3 -60 10 -77
15 -18 5 -33 8 -33 5 0 -3 -8 -1 -17 5 -10 5 -38 11 -62 15 -24 3 -47 9 -50
12 -3 3 -6 163 -6 355 l-1 349 835 0 c458 0 836 2 839 5 17 17 23 -28 23 -193z"/>
</g>
</svg>
