<?xml version="1.0" encoding="utf-8"?><svg viewBox="0 0 46 46" xmlns="http://www.w3.org/2000/svg" xmlns:xlink="http://www.w3.org/1999/xlink"><style>:root>svg{display:none}:root>svg:target{display:block}</style><svg viewBox="0 0 27 24" id="arrow-slider" xmlns="http://www.w3.org/2000/svg"><path d="M.94 10.94a1.5 1.5 0 000 2.12l9.545 9.547a1.5 1.5 0 102.122-2.122L4.12 12l8.486-8.485a1.5 1.5 0 10-2.122-2.122L.94 10.94zM27 10.5H2v3h25v-3z"/></svg><svg fill="none" viewBox="0 0 24 24" id="check" xmlns="http://www.w3.org/2000/svg"><path d="M22 5.18L10.59 16.6l-4.24-4.24 1.41-1.41 2.83 2.83 10-10L22 5.18zm-2.21 5.04c.13.57.21 1.17.21 1.78 0 4.42-3.58 8-8 8s-8-3.58-8-8 3.58-8 8-8c1.58 0 3.04.46 4.28 1.25l1.44-1.44A9.9 9.9 0 0012 2C6.48 2 2 6.48 2 12s4.48 10 10 10 10-4.48 10-10c0-1.19-.22-2.33-.6-3.39l-1.61 1.61z" fill="#FA2230"/></svg><svg fill="none" viewBox="0 0 24 23" id="hand-heart" xmlns="http://www.w3.org/2000/svg"><path d="M.75 11.03h3.07v11.066H.75V11.031zM16.565 1.915l.57.667.57-.667A3.382 3.382 0 0120.219.75c1.699 0 3.02 1.32 3.02 3.02 0 1.003-.662 2.22-1.922 3.68-1.118 1.297-2.595 2.662-4.181 4.102-1.587-1.445-3.065-2.813-4.184-4.11-1.26-1.462-1.921-2.675-1.921-3.672 0-1.7 1.32-3.02 3.02-3.02.96 0 1.909.458 2.514 1.165zM13.46 17.843l.12.042h8.124c.677 0 1.252.438 1.461 1.046l-8.348 3.127-7.213-2.04V11.03h1.365l8.16 3.046c.246.098.398.33.398.567a.6.6 0 01-.598.598h-3.083l-1.882-.716-.72-.274-.254.726-.377 1.074-.25.71.71.247 2.387.834z" stroke="#FA2230" stroke-width="1.5"/></svg><svg fill="none" viewBox="0 0 24 24" id="like" xmlns="http://www.w3.org/2000/svg"><path d="M13.11 5.72l-.57 2.89c-.12.59.04 1.2.42 1.66.38.46.94.73 1.54.73H20v1.08L17.43 18H9.34a.35.35 0 01-.34-.34V9.82l4.11-4.1zM14 2L7.59 8.41C7.21 8.79 7 9.3 7 9.83v7.83C7 18.95 8.05 20 9.34 20h8.1c.71 0 1.36-.37 1.72-.97l2.67-6.15c.11-.25.17-.52.17-.8V11c0-1.1-.9-2-2-2h-5.5l.92-4.65c.05-.22.02-.46-.08-.66a4.8 4.8 0 00-.88-1.22L14 2zM4 9H2v11h2c.55 0 1-.45 1-1v-9c0-.55-.45-1-1-1z" fill="#FA2230"/></svg><svg fill="none" viewBox="0 0 24 24" id="list" xmlns="http://www.w3.org/2000/svg"><path d="M4 7h16v2H4V7zm0 6h16v-2H4v2zm0 4h7v-2H4v2zm0 4h7v-2H4v2zm11.41-2.83L14 16.75l-1.41 1.41L15.41 21 20 16.42 18.58 15l-3.17 3.17zM4 3v2h16V3H4z" fill="#FA2230"/></svg><svg fill="none" viewBox="0 0 18 19" id="man" xmlns="http://www.w3.org/2000/svg"><path d="M17.5 4c-2.61.7-5.67 1-8.5 1S3.11 4.7.5 4L0 6c1.86.5 4 .83 6 1v12h2v-6h2v6h2V7c2-.17 4.14-.5 6-1l-.5-2zM9 4c1.1 0 2-.9 2-2s-.9-2-2-2-2 .9-2 2 .9 2 2 2z" fill="#FA2230"/></svg><svg fill="none" viewBox="0 0 46 46" id="point" xmlns="http://www.w3.org/2000/svg"><g filter="url(#gfilter0_d_13_65)"><circle cx="23" cy="23" r="10" fill="url(#gpaint0_radial_13_65)"/></g><defs><radialGradient id="gpaint0_radial_13_65" cx="0" cy="0" r="1" gradientUnits="userSpaceOnUse" gradientTransform="matrix(-4.39998 5.90002 -8.1973 -6.1132 25.8 21.1)"><stop stop-color="#E8101E"/><stop offset=".177" stop-color="#CA161F"/><stop offset=".365" stop-color="#AA0E14"/><stop offset=".563" stop-color="#9A0A0F"/><stop offset=".729" stop-color="#880609"/><stop offset="1" stop-color="#700000"/></radialGradient><filter id="gfilter0_d_13_65" x="0" y="0" width="46" height="46" filterUnits="userSpaceOnUse" color-interpolation-filters="sRGB"><feFlood flood-opacity="0" result="BackgroundImageFix"/><feColorMatrix in="SourceAlpha" values="0 0 0 0 0 0 0 0 0 0 0 0 0 0 0 0 0 0 127 0" result="hardAlpha"/><feMorphology radius="3" operator="dilate" in="SourceAlpha" result="effect1_dropShadow_13_65"/><feOffset/><feGaussianBlur stdDeviation="5"/><feComposite in2="hardAlpha" operator="out"/><feColorMatrix values="0 0 0 0 0.439216 0 0 0 0 0 0 0 0 0 0 0 0 0 0.3 0"/><feBlend in2="BackgroundImageFix" result="effect1_dropShadow_13_65"/><feBlend in="SourceGraphic" in2="effect1_dropShadow_13_65" result="shape"/></filter></defs></svg><svg fill="none" viewBox="0 0 24 24" id="time" xmlns="http://www.w3.org/2000/svg"><path d="M11.99 2C6.47 2 2 6.48 2 12s4.47 10 9.99 10C17.52 22 22 17.52 22 12S17.52 2 11.99 2zM12 20c-4.42 0-8-3.58-8-8s3.58-8 8-8 8 3.58 8 8-3.58 8-8 8z" fill="#FA2230"/><path d="M12.5 7H11v6l5.25 3.15.75-1.23-4.5-2.67V7z" fill="#FA2230"/></svg></svg>