<svg width="50" height="51" viewBox="0 0 50 51" fill="none" xmlns="http://www.w3.org/2000/svg">
<path d="M42.4005 27.5094C42.9969 27.5094 43.4624 28.0287 43.3508 28.6146C42.2414 34.4443 37.1785 43.2448 24.81 43.8069C20.7064 43.8069 13.5116 42.1293 8.8874 34.596C8.70074 34.2919 8.37121 34.0987 8.01441 34.0987H3.12894C2.42883 34.0987 1.94719 34.7985 2.23614 35.4362C5.156 41.8803 12.067 49.558 24.81 50.0882C34.9788 50.2555 51.0942 42.2537 49.9414 21.9421C49.9119 21.422 49.476 21.0122 48.9551 21.0122H36.6831C36.0805 21.0122 35.6148 21.5411 35.6911 22.1388L36.2652 26.636C36.329 27.1353 36.7539 27.5094 37.2572 27.5094H42.4005Z" fill="#F6F6F6"/>
<path d="M45.9349 14.2385C46.6722 14.2385 47.1515 13.4727 46.7822 12.8345C43.5324 7.21878 36.1845 1.94892e-05 24.81 0C15.5609 -1.58474e-05 -0.64939 7.30326 0.0201054 26.5613C0.0384547 27.0891 0.477696 27.5094 1.00583 27.5094H13.1493C13.6714 27.5094 14.1057 27.1077 14.1463 26.5871L14.4971 22.0899C14.5425 21.5088 14.0831 21.0122 13.5002 21.0122H7.84614C7.22479 21.0122 6.75415 20.4541 6.92239 19.856C8.3283 14.8576 13.7036 6.51476 24.81 6.34442C25.3529 6.34442 34.2486 6.04745 39.8486 13.8021C40.0425 14.0706 40.3526 14.2385 40.6838 14.2385H45.9349Z" fill="#F6F6F6"/>
<path d="M13.826 24.7992C13.826 24.7992 13.8452 36.5584 13.8452 40.0919C16.9325 42.4565 20.2771 43.1935 20.2771 43.1935V38.8073V32.3562V24.7992C20.6398 20.4216 23.777 19.4078 25.6662 19.4078C29.1683 19.4078 30.8754 22.6795 30.8754 24.7992V32.3562V38.8073V42.7502C30.8754 42.7502 35.105 41.4042 37.3265 39.1324C37.3243 34.237 37.3265 24.7992 37.3265 24.7992C36.8629 15.5832 29.9516 12.7513 25.6662 12.8646C17.0494 13.0923 13.5934 20.4216 13.826 24.7992Z" fill="#FA2230"/>
<path d="M30.8754 32.3562H20.2771V38.8073H30.8754V32.3562Z" fill="#FA2230"/>
</svg>
